<svg viewBox="0 0 800 500" xmlns="http://www.w3.org/2000/svg">
  <!-- Background brick wall -->
  <rect width="800" height="500" fill="#8B4513"/>
  
  <!-- Brick pattern -->
  <defs>
    <pattern id="bricks" patternUnits="userSpaceOnUse" width="60" height="30">
      <rect width="60" height="30" fill="#A0522D"/>
      <rect width="58" height="28" x="1" y="1" fill="#CD853F"/>
      <line x1="0" y1="15" x2="60" y2="15" stroke="#654321" stroke-width="1"/>
      <line x1="30" y1="0" x2="30" y2="15" stroke="#654321" stroke-width="1"/>
      <line x1="30" y1="15" x2="30" y2="30" stroke="#654321" stroke-width="1"/>
    </pattern>
  </defs>
  
  <rect width="800" height="500" fill="url(#bricks)"/>
  
  <!-- Floor -->
  <rect x="0" y="400" width="800" height="100" fill="#8B4513"/>
  
  <!-- Main roasting equipment -->
  <ellipse cx="200" cy="350" rx="80" ry="40" fill="#B87333"/>
  <rect x="120" y="250" width="160" height="100" rx="20" fill="#CD7F32"/>
  <rect x="130" y="260" width="140" height="80" rx="15" fill="#8B4513"/>
  
  <!-- Copper details -->
  <circle cx="200" cy="300" r="25" fill="#B87333"/>
  <circle cx="200" cy="300" r="20" fill="#CD853F"/>
  <rect x="190" y="270" width="20" height="20" fill="#B87333"/>
  
  <!-- Fire underneath -->
  <ellipse cx="200" cy="370" rx="60" ry="15" fill="#FF4500" opacity="0.8"/>
  <ellipse cx="200" cy="375" rx="40" ry="10" fill="#FF6347" opacity="0.6"/>
  
  <!-- Steam/smoke -->
  <ellipse cx="180" cy="230" rx="15" ry="30" fill="#F5F5F5" opacity="0.6"/>
  <ellipse cx="200" cy="220" rx="12" ry="25" fill="#F5F5F5" opacity="0.5"/>
  <ellipse cx="220" cy="235" rx="10" ry="20" fill="#F5F5F5" opacity="0.4"/>
  
  <!-- Burlap sacks -->
  <ellipse cx="500" cy="380" rx="50" ry="30" fill="#DEB887"/>
  <rect x="450" y="350" width="100" height="60" fill="#D2B48C"/>
  <ellipse cx="500" cy="350" rx="50" ry="25" fill="#F5DEB3"/>
  
  <!-- Coffee beans spilling -->
  <circle cx="480" cy="345" r="3" fill="#8B4513"/>
  <circle cx="520" cy="340" r="3" fill="#A0522D"/>
  <circle cx="490" cy="355" r="3" fill="#654321"/>
  <circle cx="510" cy="350" r="3" fill="#8B4513"/>
  
  <!-- Second sack -->
  <ellipse cx="600" cy="385" rx="45" ry="28" fill="#DEB887"/>
  <rect x="555" y="357" width="90" height="55" fill="#D2B48C"/>
  <ellipse cx="600" cy="357" rx="45" ry="22" fill="#F5DEB3"/>
  
  <!-- Wooden cooling trays -->
  <rect x="320" y="330" width="120" height="60" fill="#8B4513"/>
  <rect x="325" y="335" width="110" height="50" fill="#A0522D"/>
  
  <!-- Roasted beans in tray -->
  <circle cx="340" cy="355" r="2" fill="#654321"/>
  <circle cx="360" cy="350" r="2" fill="#8B4513"/>
  <circle cx="380" cy="365" r="2" fill="#A0522D"/>
  <circle cx="400" cy="355" r="2" fill="#654321"/>
  <circle cx="420" cy="360" r="2" fill="#8B4513"/>
  
  <!-- Warm lighting effects -->
  <ellipse cx="150" cy="150" rx="80" ry="40" fill="#FFD700" opacity="0.2"/>
  <ellipse cx="400" cy="120" rx="100" ry="50" fill="#FFA500" opacity="0.15"/>
  <ellipse cx="650" cy="180" rx="90" ry="45" fill="#FF8C00" opacity="0.18"/>
  
  <!-- Hanging lamp -->
  <rect x="395" y="50" width="10" height="80" fill="#654321"/>
  <ellipse cx="400" cy="130" rx="40" ry="20" fill="#B87333"/>
  <ellipse cx="400" cy="135" rx="35" ry="15" fill="#FFD700" opacity="0.8"/>
</svg>